<svg xmlns="http://www.w3.org/2000/svg" width="1182" height="1192" viewBox="0 0 1182 1192" fill="none"><g clip-path="url(#clip0_431_1019)"><path opacity="0.3" d="M590.93 1191.01C916.745 1191.01 1180.87 924.614 1180.87 596C1180.87 267.386 916.745 0.991699 590.93 0.991699C265.116 0.991699 0.991211 267.386 0.991211 596C0.991211 924.614 265.116 1191.01 590.93 1191.01Z" stroke="url(#paint0_linear_431_1019)" stroke-width="1.72165" stroke-miterlimit="10"></path></g><g clip-path="url(#clip1_431_1019)"><path opacity="0.3" d="M591.527 1140.99C890.189 1140.99 1132.31 896.765 1132.31 595.5C1132.31 294.235 890.189 50.0127 591.527 50.0127C292.865 50.0127 50.752 294.235 50.752 595.5C50.752 896.765 292.865 1140.99 591.527 1140.99Z" stroke="url(#paint1_linear_431_1019)" stroke-width="1.72165" stroke-miterlimit="10"></path></g><g clip-path="url(#clip2_431_1019)"><path opacity="0.3" d="M591.528 1084.23C859.096 1084.23 1076 865.417 1076 595.5C1076 325.583 859.096 106.771 591.528 106.771C323.96 106.771 107.053 325.583 107.053 595.5C107.053 865.417 323.96 1084.23 591.528 1084.23Z" stroke="url(#paint2_linear_431_1019)" stroke-width="1.72165" stroke-miterlimit="10"></path></g><g clip-path="url(#clip3_431_1019)"><path opacity="0.3" d="M591.03 1023.99C825.471 1023.99 1015.52 832.374 1015.52 596C1015.52 359.625 825.471 168.006 591.03 168.006C356.588 168.006 166.536 359.625 166.536 596C166.536 832.374 356.588 1023.99 591.03 1023.99Z" stroke="url(#paint3_linear_431_1019)" stroke-width="1.72165" stroke-miterlimit="10"></path></g><path opacity="0.3" d="M591.034 960.89C790.632 960.89 952.44 797.523 952.44 596C952.44 394.476 790.632 231.11 591.034 231.11C391.434 231.11 229.627 394.476 229.627 596C229.627 797.523 391.434 960.89 591.034 960.89Z" stroke="url(#paint4_linear_431_1019)" stroke-width="1.72165" stroke-miterlimit="10"></path><path opacity="0.3" d="M588.992 894.823C754.337 894.823 889.514 760.789 890.917 595.451C892.321 430.111 759.419 296.076 594.073 296.076C428.728 296.076 293.551 430.111 292.148 595.451C290.745 760.789 423.646 894.823 588.992 894.823Z" stroke="url(#paint5_linear_431_1019)" stroke-width="1.72165" stroke-miterlimit="10"></path><path opacity="0.3" d="M588.961 840.13C723.823 840.13 834.079 730.807 835.223 595.949C836.367 461.092 727.967 351.768 593.105 351.768C458.243 351.768 347.987 461.092 346.843 595.949C345.699 730.807 454.098 840.13 588.961 840.13Z" stroke="url(#paint6_linear_431_1019)" stroke-width="1.72165" stroke-miterlimit="10"></path><path opacity="0.3" d="M591.037 774.74C688.919 774.74 768.266 694.715 768.266 596C768.266 497.285 688.919 417.26 591.037 417.26C493.156 417.26 413.808 497.285 413.808 596C413.808 694.715 493.156 774.74 591.037 774.74Z" stroke="url(#paint7_linear_431_1019)" stroke-width="1.72165" stroke-miterlimit="10"></path><defs><linearGradient id="paint0_linear_431_1019" x1="590.905" y1="0.502704" x2="590.905" y2="1191.44" gradientUnits="userSpaceOnUse"><stop offset="0.1277" stop-color="white" stop-opacity="0"></stop><stop offset="0.492" stop-color="white"></stop><stop offset="0.827" stop-color="white" stop-opacity="0"></stop></linearGradient><linearGradient id="paint1_linear_431_1019" x1="591.484" y1="49.4768" x2="591.484" y2="1141.47" gradientUnits="userSpaceOnUse"><stop stop-color="white" stop-opacity="0"></stop><stop offset="0.492" stop-color="white"></stop><stop offset="1" stop-color="white" stop-opacity="0"></stop></linearGradient><linearGradient id="paint2_linear_431_1019" x1="591.485" y1="106.268" x2="591.485" y2="1084.68" gradientUnits="userSpaceOnUse"><stop stop-color="white" stop-opacity="0"></stop><stop offset="0.492" stop-color="white"></stop><stop offset="1" stop-color="white" stop-opacity="0"></stop></linearGradient><linearGradient id="paint3_linear_431_1019" x1="590.984" y1="167.457" x2="590.984" y2="1024.49" gradientUnits="userSpaceOnUse"><stop stop-color="white" stop-opacity="0"></stop><stop offset="0.492" stop-color="white"></stop><stop offset="1" stop-color="white" stop-opacity="0"></stop></linearGradient><linearGradient id="paint4_linear_431_1019" x1="590.981" y1="230.446" x2="590.981" y2="961.491" gradientUnits="userSpaceOnUse"><stop stop-color="white" stop-opacity="0"></stop><stop offset="0.492" stop-color="white"></stop><stop offset="1" stop-color="white" stop-opacity="0"></stop></linearGradient><linearGradient id="paint5_linear_431_1019" x1="594.022" y1="295.372" x2="594.022" y2="895.461" gradientUnits="userSpaceOnUse"><stop stop-color="white" stop-opacity="0"></stop><stop offset="0.492" stop-color="white"></stop><stop offset="1" stop-color="white" stop-opacity="0"></stop></linearGradient><linearGradient id="paint6_linear_431_1019" x1="593.053" y1="351.119" x2="593.053" y2="840.711" gradientUnits="userSpaceOnUse"><stop stop-color="white" stop-opacity="0"></stop><stop offset="0.492" stop-color="white"></stop><stop offset="1" stop-color="white" stop-opacity="0"></stop></linearGradient><linearGradient id="paint7_linear_431_1019" x1="590.979" y1="416.544" x2="590.979" y2="775.388" gradientUnits="userSpaceOnUse"><stop stop-color="white" stop-opacity="0"></stop><stop offset="0.492" stop-color="white"></stop><stop offset="1" stop-color="white" stop-opacity="0"></stop></linearGradient><clipPath id="clip0_431_1019"><rect width="1182" height="1192" fill="white"></rect></clipPath><clipPath id="clip1_431_1019"><rect width="1085" height="1093" fill="white" transform="translate(49 49)"></rect></clipPath><clipPath id="clip2_431_1019"><rect width="971" height="981" fill="white" transform="translate(106 105)"></rect></clipPath><clipPath id="clip3_431_1019"><rect width="852" height="858" fill="white" transform="translate(165 167)"></rect></clipPath></defs></svg>